<?xml version="1.0" standalone="no"?>
<!DOCTYPE svg PUBLIC "-//W3C//DTD SVG 20010904//EN"
 "http://www.w3.org/TR/2001/REC-SVG-20010904/DTD/svg10.dtd">
<svg version="1.0" xmlns="http://www.w3.org/2000/svg"
 width="512.000000pt" height="512.000000pt" viewBox="0 0 512.000000 512.000000"
 preserveAspectRatio="xMidYMid meet">
<metadata>
Created by potrace 1.14, written by Peter Selinger 2001-2017
</metadata>
<g transform="translate(0.000000,512.000000) scale(0.100000,-0.100000)"
fill="#000000" stroke="none">
<path d="M2626 4912 c-3 -5 -23 -8 -46 -7 -22 1 -40 -1 -40 -5 0 -3 -13 -5
-30 -4 -17 1 -30 -3 -30 -9 0 -7 -5 -5 -10 3 -5 8 -10 10 -10 3 0 -6 -7 -10
-17 -9 -9 2 -33 -6 -54 -16 -21 -10 -45 -18 -54 -18 -8 0 -15 -4 -15 -8 0 -8
-60 -36 -72 -33 -5 0 -8 -4 -8 -10 0 -5 -4 -8 -9 -5 -5 3 -12 -1 -15 -10 -3
-9 -12 -14 -20 -11 -7 3 -19 -3 -26 -13 -8 -11 -17 -17 -20 -15 -4 3 -15 -4
-25 -15 -10 -11 -22 -17 -26 -14 -5 3 -9 0 -9 -5 0 -6 -7 -11 -15 -11 -8 0
-15 -5 -15 -12 0 -6 -3 -9 -6 -5 -4 3 -13 -1 -21 -9 -8 -8 -19 -12 -24 -9 -5
4 -9 3 -9 -2 0 -7 -42 -35 -65 -43 -5 -1 -16 -10 -23 -19 -8 -9 -10 -10 -6 -2
7 14 -55 -26 -68 -44 -4 -5 -10 -7 -13 -3 -4 3 -15 -2 -26 -13 -10 -10 -26
-19 -34 -19 -8 0 -15 -4 -15 -8 0 -10 -71 -47 -83 -44 -5 2 -6 -1 -4 -5 5 -8
-17 -34 -28 -33 -3 0 -9 0 -13 0 -5 0 -19 -9 -32 -20 -13 -11 -29 -20 -37 -20
-7 0 -13 -3 -13 -8 0 -4 -9 -13 -21 -20 -17 -11 -20 -11 -13 0 4 7 -5 2 -19
-11 -15 -14 -27 -21 -27 -17 0 4 -10 -2 -22 -13 -11 -11 -25 -18 -30 -15 -4 3
-12 -5 -17 -18 -6 -13 -10 -17 -10 -9 -1 9 -12 5 -35 -12 -18 -15 -36 -23 -40
-20 -3 4 -6 1 -6 -5 0 -7 -7 -12 -15 -12 -9 0 -18 -7 -21 -15 -4 -8 -10 -13
-14 -10 -4 3 -13 -1 -19 -9 -6 -7 -31 -21 -55 -31 -25 -10 -43 -22 -40 -27 3
-4 -2 -8 -10 -8 -9 0 -16 -4 -16 -10 0 -5 -7 -10 -15 -10 -8 0 -15 -5 -15 -12
0 -6 -3 -9 -6 -5 -8 8 -118 -104 -150 -153 -15 -22 -30 -40 -35 -40 -5 0 -6
-7 -3 -15 4 -8 2 -15 -4 -15 -6 0 -13 -13 -17 -30 -4 -16 -11 -30 -16 -30 -6
0 -8 -4 -4 -9 3 -5 1 -12 -5 -16 -6 -4 -8 -11 -5 -16 4 -5 2 -9 -2 -9 -5 0 -9
-8 -10 -17 -1 -10 -4 -31 -8 -48 -4 -16 -7 -37 -8 -45 0 -8 -3 -19 -7 -25 -4
-5 -6 -22 -5 -37 1 -16 -2 -28 -7 -28 -5 0 -7 -4 -3 -9 10 -18 11 -1401 0
-1401 -6 0 -5 -3 1 -8 6 -4 10 -17 9 -30 -1 -12 2 -22 6 -22 4 0 6 -13 5 -30
-1 -16 2 -30 7 -30 5 0 7 -6 4 -14 -3 -7 -1 -18 4 -23 5 -5 10 -21 11 -36 1
-15 6 -27 10 -27 4 0 8 -9 8 -21 0 -11 5 -17 10 -14 6 3 10 0 10 -7 0 -19 23
-68 33 -68 4 0 7 -7 7 -15 0 -8 5 -15 10 -15 6 0 10 -7 10 -16 0 -8 5 -12 10
-9 6 3 10 -1 10 -9 0 -9 5 -16 10 -16 6 0 10 -7 10 -15 0 -8 4 -15 9 -15 4 0
20 -12 35 -26 14 -15 26 -23 26 -18 0 5 7 -2 16 -14 8 -12 21 -22 29 -22 8 0
19 -9 25 -21 7 -11 14 -18 17 -16 2 3 28 -8 57 -24 29 -15 57 -25 61 -21 4 4
0 -5 -10 -20 -9 -16 -24 -28 -31 -28 -8 0 -14 -3 -14 -8 0 -4 -15 -14 -32 -21
-18 -8 -39 -21 -46 -28 -8 -7 -18 -11 -23 -8 -5 4 -9 2 -9 -3 0 -9 -53 -37
-57 -30 -1 1 -9 -6 -17 -17 -9 -11 -16 -16 -16 -11 0 5 -8 2 -17 -6 -10 -8
-32 -21 -50 -29 -17 -7 -29 -17 -26 -23 3 -5 1 -6 -5 -2 -7 4 -25 -6 -42 -24
-16 -16 -27 -30 -24 -30 2 0 -2 -10 -9 -23 -8 -12 -13 -32 -12 -45 1 -12 -2
-22 -7 -22 -5 0 -6 -6 -1 -12 4 -7 8 -19 10 -27 3 -24 25 -70 32 -68 3 1 16
-8 29 -21 12 -12 27 -20 32 -17 6 4 10 1 10 -4 0 -6 7 -11 16 -11 8 0 12 -4 9
-10 -3 -5 2 -10 13 -10 11 0 31 -9 45 -20 14 -11 29 -20 33 -20 4 0 23 -12 42
-27 20 -15 32 -21 28 -15 -4 6 7 4 23 -6 17 -9 31 -20 31 -24 0 -5 7 -8 16 -8
9 0 24 -8 33 -17 9 -10 23 -19 31 -21 8 -2 38 -16 65 -32 28 -16 54 -29 59
-28 5 0 12 -4 15 -9 3 -5 31 -23 61 -39 30 -16 58 -33 62 -39 4 -6 8 -6 8 -1
0 6 6 2 13 -9 8 -10 19 -15 24 -12 6 4 14 0 17 -9 3 -8 10 -12 16 -9 5 3 10 1
10 -4 0 -6 6 -11 13 -11 8 0 24 -9 37 -20 13 -11 27 -20 32 -20 4 0 10 0 13 0
3 0 15 -9 27 -20 12 -11 28 -20 35 -20 7 0 13 -5 13 -11 0 -5 5 -7 10 -4 6 3
10 1 10 -5 0 -6 5 -8 10 -5 6 3 10 2 10 -3 0 -5 8 -12 18 -15 9 -4 44 -22 77
-42 33 -19 87 -49 120 -67 33 -17 62 -34 65 -37 3 -4 22 -15 43 -24 20 -10 37
-23 37 -29 0 -5 7 -8 15 -4 8 3 15 1 15 -4 0 -6 8 -10 18 -10 10 0 28 -9 40
-20 12 -11 30 -20 41 -20 11 0 21 -5 23 -10 2 -6 13 -12 26 -13 12 0 22 -4 22
-7 0 -3 10 -6 23 -7 25 -3 62 -10 62 -13 0 -1 14 -3 31 -5 17 -1 37 -6 44 -10
7 -4 16 -2 21 6 5 8 9 9 9 3 0 -6 11 -10 25 -9 14 2 25 -1 25 -7 0 -6 7 -5 16
3 13 10 17 10 24 0 6 -11 9 -11 13 0 4 11 6 11 6 1 1 -8 6 -10 14 -5 6 4 28 8
47 9 70 4 110 9 110 14 0 3 14 7 31 8 17 1 39 7 49 12 9 5 20 6 24 3 3 -3 6
-1 6 6 0 7 4 10 9 6 5 -3 12 -1 16 5 4 6 11 8 16 5 5 -4 9 -2 9 4 0 6 6 8 13
5 7 -2 21 4 31 15 10 11 23 18 27 15 5 -3 9 0 9 5 0 6 6 11 13 11 7 0 23 9 34
19 12 11 24 17 27 14 3 -4 14 1 23 9 29 24 113 70 113 61 0 -4 5 0 11 10 7 12
17 16 32 12 17 -5 19 -4 7 4 -13 9 -12 11 3 11 11 0 15 4 11 12 -4 6 -3 8 3 5
9 -6 122 56 133 73 3 4 16 11 30 15 14 4 37 16 52 26 14 11 30 19 36 19 5 0
15 7 22 15 7 9 15 13 18 11 2 -3 11 2 19 10 8 8 19 12 24 9 5 -4 9 -1 9 4 0 6
7 11 15 11 8 0 15 5 15 10 0 6 5 10 10 10 6 0 29 12 53 27 23 14 48 26 54 26
7 0 13 4 13 9 0 5 10 13 23 18 12 6 40 21 62 34 22 13 43 22 48 19 4 -2 7 1 7
6 0 6 16 17 35 25 19 8 35 20 35 25 0 6 6 8 14 5 8 -3 21 5 29 17 10 14 22 19
32 15 9 -3 14 -2 11 3 -3 5 5 12 19 15 14 4 25 11 25 16 0 6 7 10 15 10 8 0
15 4 15 10 0 5 3 9 8 8 14 -3 61 25 56 33 -3 5 1 6 9 3 8 -3 22 2 31 11 9 9
16 14 16 10 0 -4 12 3 27 15 34 26 76 87 68 99 -3 6 -1 12 5 16 11 7 9 33 -3
53 -5 6 -4 12 2 12 21 0 -43 88 -77 106 -20 10 -38 19 -41 18 -3 -1 -11 6 -18
15 -7 9 -13 12 -13 7 0 -5 -8 -2 -17 6 -10 8 -39 26 -65 38 -27 13 -48 28 -48
32 0 5 -4 6 -10 3 -5 -3 -10 -2 -10 3 0 6 -11 13 -25 16 -14 4 -23 11 -20 16
3 6 -1 7 -9 4 -9 -4 -18 1 -22 10 -3 9 -10 13 -15 10 -5 -3 -9 0 -9 7 0 7 -3
10 -6 6 -4 -3 -13 0 -21 8 -13 13 -12 17 1 31 12 12 16 12 16 2 0 -8 5 -6 11
5 6 9 14 15 20 12 5 -4 9 -2 9 4 0 6 18 20 40 31 22 11 40 25 40 31 0 6 5 7
10 4 6 -3 13 1 16 9 3 9 12 16 18 16 7 0 22 11 34 25 12 14 26 25 32 25 5 0
10 6 10 13 0 6 14 26 30 44 17 18 30 36 30 42 0 5 8 15 18 20 9 6 13 11 8 11
-4 0 -1 11 8 25 9 14 13 25 9 25 -5 0 -1 5 7 10 8 5 16 14 16 20 1 5 3 12 4
15 4 9 7 25 9 46 0 11 5 18 10 14 6 -3 10 3 10 12 -1 19 8 78 11 78 1 0 3 14
5 30 1 17 4 32 5 35 7 13 5 36 -5 43 -7 4 -7 10 0 15 15 10 17 32 5 46 -5 7
-6 16 -2 20 10 11 9 30 -3 38 -7 5 -7 11 0 15 15 11 17 33 5 47 -5 7 -6 16 -2
20 10 11 9 30 -3 39 -7 4 -7 10 0 15 15 10 17 32 5 46 -5 7 -7 16 -3 20 12 12
12 36 0 36 -8 0 -7 3 2 9 9 6 10 11 2 15 -6 4 -8 13 -4 19 11 17 10 31 -2 40
-7 4 -7 10 0 15 15 10 17 32 5 46 -5 7 -6 16 -2 20 10 11 9 30 -3 39 -7 4 -7
10 0 15 15 10 17 32 5 46 -5 7 -6 16 -2 20 10 11 9 30 -3 39 -7 4 -7 10 0 15
15 10 17 32 5 46 -5 7 -6 16 -2 20 10 11 9 30 -3 39 -7 4 -7 10 0 15 15 10 17
32 5 46 -5 7 -6 16 -2 20 10 11 9 30 -3 39 -7 4 -7 10 0 15 15 10 17 32 5 46
-5 7 -6 16 -2 20 10 11 9 30 -3 39 -7 4 -7 10 0 15 15 10 17 32 5 46 -5 7 -6
16 -2 20 10 11 9 30 -3 39 -7 4 -7 10 0 15 15 10 17 32 5 46 -5 7 -6 16 -2 20
10 11 9 30 -3 39 -7 5 -7 9 0 15 10 6 12 23 5 47 -1 6 -1 21 0 34 1 17 -2 21
-12 16 -10 -6 -10 -5 -2 4 9 10 8 30 -3 79 -8 37 -17 74 -20 82 -4 8 -7 18 -8
23 -2 4 -4 9 -5 12 -1 3 -3 8 -4 13 -7 24 -42 92 -48 92 -5 0 -8 7 -8 15 0 8
-5 15 -11 15 -5 0 -8 4 -5 9 3 5 -1 12 -10 15 -8 3 -13 10 -10 15 3 5 -1 11
-9 15 -8 3 -15 13 -15 22 0 10 -3 15 -6 11 -7 -7 -60 44 -56 55 1 4 -4 7 -10
6 -7 -2 -12 2 -11 8 1 6 -20 22 -47 35 -26 13 -46 28 -42 33 3 5 -2 7 -11 3
-10 -3 -17 -2 -17 3 0 5 -17 17 -37 27 -21 9 -45 25 -54 35 -9 10 -19 15 -22
12 -3 -4 -13 1 -22 10 -9 9 -23 16 -31 16 -8 0 -14 5 -14 11 0 5 -4 8 -9 5 -5
-3 -11 1 -15 9 -3 8 -12 15 -19 15 -8 0 -20 7 -27 15 -7 8 -16 12 -21 9 -5 -3
-9 0 -9 6 0 6 -4 8 -10 5 -5 -3 -10 -2 -10 2 0 5 -17 17 -37 28 -21 11 -49 30
-62 42 -13 12 -30 19 -37 16 -8 -3 -14 0 -14 6 0 11 -33 28 -54 29 -5 0 -12 4
-15 9 -14 19 -54 47 -47 33 4 -8 0 -6 -8 4 -9 11 -16 16 -16 10 0 -5 -7 0 -15
10 -8 11 -15 16 -15 12 0 -5 -15 3 -32 16 -18 13 -48 30 -65 37 -18 7 -30 17
-27 22 3 5 -4 9 -15 9 -12 0 -21 5 -21 12 0 6 -3 8 -7 5 -3 -4 -13 -1 -22 7
-9 8 -23 16 -31 18 -8 2 -22 11 -31 20 -9 10 -19 15 -23 11 -3 -3 -6 -1 -6 5
0 7 -6 12 -13 12 -7 0 -23 9 -34 19 -12 11 -24 17 -27 14 -3 -4 -6 -1 -6 6 0
7 -4 10 -9 7 -5 -3 -14 1 -21 9 -7 8 -19 15 -26 15 -8 0 -14 5 -14 11 0 5 -4
8 -9 5 -5 -3 -14 1 -21 9 -7 8 -19 15 -26 15 -8 0 -14 3 -14 8 0 4 -11 12 -25
19 -14 6 -23 7 -20 2 3 -4 -13 2 -36 16 -23 13 -48 21 -54 18 -7 -2 -16 0 -19
6 -4 5 -32 13 -64 17 -31 4 -61 7 -67 8 -5 1 -15 5 -22 9 -6 4 -14 3 -17 -1z
m55 -303 c27 -2 49 -7 49 -12 0 -5 9 -7 20 -4 13 3 20 0 20 -10 0 -9 6 -13 15
-10 8 4 17 2 21 -4 3 -6 13 -8 21 -5 8 3 11 1 8 -4 -3 -6 1 -10 9 -10 9 0 16
-4 16 -10 0 -5 5 -10 11 -10 6 0 24 -9 40 -21 16 -11 29 -17 29 -13 0 4 10 -2
23 -14 13 -12 27 -19 30 -15 4 3 7 1 7 -5 0 -7 7 -12 15 -12 8 0 24 -9 34 -19
11 -11 22 -16 26 -13 4 4 12 0 18 -8 13 -16 67 -45 80 -42 4 1 6 -3 5 -9 -2
-6 5 -13 15 -14 10 -2 27 -11 36 -19 10 -9 23 -16 30 -16 13 0 101 -58 112
-73 3 -5 9 -8 13 -8 23 3 36 0 31 -8 -3 -5 10 -15 29 -22 19 -7 33 -16 30 -20
-2 -5 5 -6 16 -4 11 2 20 0 20 -6 0 -5 16 -17 35 -26 19 -9 35 -21 35 -25 0
-5 4 -7 9 -3 5 3 16 -2 24 -10 9 -8 20 -15 26 -15 6 0 11 -4 11 -10 0 -5 7
-10 15 -10 8 0 15 -5 15 -11 0 -5 4 -7 10 -4 9 6 18 0 54 -32 8 -7 16 -9 20
-6 3 4 6 -1 6 -9 0 -9 8 -22 18 -29 16 -13 16 -12 3 6 -8 11 -3 8 12 -7 15
-15 27 -32 27 -38 0 -5 5 -10 11 -10 5 0 7 -4 4 -10 -3 -5 -1 -10 5 -10 7 0
10 -6 7 -14 -3 -8 -3 -17 1 -20 10 -11 11 -36 1 -42 -6 -3 -5 -11 2 -20 8 -10
8 -18 0 -27 -6 -8 -12 -24 -15 -38 -2 -13 -9 -23 -15 -22 -6 2 -10 0 -9 -5 4
-12 -35 -52 -51 -52 -8 0 -11 -3 -7 -7 3 -4 -12 -15 -34 -25 -22 -10 -40 -23
-40 -29 0 -6 -4 -7 -10 -4 -5 3 -10 1 -10 -5 0 -6 -4 -9 -9 -6 -5 3 -14 0 -20
-8 -7 -8 -23 -17 -36 -20 -14 -4 -25 -11 -25 -16 0 -6 -6 -10 -14 -10 -8 0
-17 -7 -20 -16 -3 -8 -11 -12 -17 -8 -6 3 -14 2 -18 -3 -3 -6 -32 -25 -63 -43
-32 -17 -61 -36 -64 -41 -3 -5 -10 -7 -15 -4 -5 4 -9 1 -9 -4 0 -6 -7 -11 -15
-11 -8 0 -15 -5 -15 -11 0 -5 -4 -7 -10 -4 -5 3 -10 2 -10 -3 0 -6 -10 -12
-23 -16 -12 -3 -32 -14 -44 -25 -11 -11 -24 -17 -27 -14 -3 4 -6 1 -6 -5 0 -7
-5 -12 -11 -12 -6 0 -17 -7 -26 -15 -8 -8 -19 -13 -24 -10 -5 4 -9 1 -9 -5 0
-6 -4 -8 -10 -5 -5 3 -10 1 -10 -4 0 -6 -7 -11 -15 -11 -8 0 -15 -4 -15 -10 0
-5 -7 -10 -15 -10 -8 0 -15 -4 -15 -10 0 -5 -6 -10 -14 -10 -8 0 -21 -6 -28
-13 -7 -7 -28 -20 -45 -28 -18 -7 -33 -18 -33 -22 0 -5 -4 -5 -10 -2 -5 3 -10
2 -10 -3 0 -4 -16 -14 -35 -22 -19 -8 -35 -17 -35 -20 0 -7 -102 -45 -112 -42
-5 1 -8 -1 -8 -6 0 -4 -19 -8 -43 -9 -23 -1 -59 -4 -79 -6 -21 -2 -38 -1 -38
3 0 3 -15 6 -32 7 -41 1 -61 6 -68 15 -3 4 -17 9 -30 10 -24 3 -35 9 -65 36
-8 7 -15 11 -15 8 0 -3 -21 8 -46 24 -26 16 -50 27 -54 25 -5 -3 -10 2 -14 10
-3 8 -12 15 -21 15 -8 0 -15 5 -15 10 0 6 -5 10 -12 10 -6 0 -23 10 -36 23
-14 12 -22 16 -18 10 12 -21 -8 -15 -24 7 -8 11 -20 20 -28 20 -7 0 -22 9 -34
20 -12 11 -28 20 -35 20 -7 0 -13 5 -13 11 0 5 -4 8 -8 5 -5 -3 -19 5 -33 18
-13 12 -30 21 -37 18 -6 -2 -15 3 -18 12 -3 9 -10 13 -15 10 -5 -3 -9 0 -9 6
0 6 -4 8 -10 5 -5 -3 -10 -2 -10 3 0 5 -13 15 -30 22 -16 7 -30 17 -30 22 0 5
-4 7 -9 3 -5 -3 -16 2 -24 10 -9 8 -20 15 -26 15 -5 0 -15 8 -20 18 -8 13 -11
14 -11 2 0 -12 -3 -11 -11 3 -5 9 -17 17 -24 17 -8 0 -15 5 -15 11 0 5 -4 7
-10 4 -5 -3 -10 -2 -10 3 0 4 -20 19 -45 31 -24 12 -47 26 -50 32 -4 5 -11 7
-16 4 -5 -4 -9 -1 -9 4 0 6 -7 11 -15 11 -8 0 -15 5 -15 10 0 6 -9 10 -21 10
-11 0 -17 5 -14 10 3 6 2 10 -3 10 -16 0 -72 57 -72 73 0 10 -4 17 -10 17 -5
0 -6 7 -3 17 4 9 2 14 -3 10 -15 -9 -6 92 12 130 16 36 79 104 88 96 3 -4 6
-1 6 5 0 7 5 12 11 12 6 0 30 14 55 30 24 17 44 27 44 23 0 -4 6 -1 13 8 11
14 47 32 56 29 2 -1 7 2 10 7 8 12 159 103 171 103 6 0 10 3 10 8 0 4 10 12
23 18 45 22 91 49 105 62 7 7 17 10 22 7 4 -3 10 2 14 10 3 8 10 15 17 15 6 0
24 9 40 21 16 11 29 17 29 14 0 -4 7 1 16 9 8 9 22 16 30 16 8 0 12 5 9 10 -3
6 3 10 13 10 11 0 25 7 32 15 7 8 19 15 26 15 8 0 14 5 14 11 0 5 4 8 9 5 5
-4 11 -1 13 4 2 6 11 12 19 13 9 2 24 11 33 20 10 9 22 15 27 12 5 -4 9 -1 9
6 0 7 3 10 6 6 6 -5 15 0 48 30 8 7 16 9 20 6 3 -3 12 -1 19 5 8 7 17 9 20 5
4 -3 7 0 7 7 0 7 3 10 7 7 3 -4 12 -2 20 4 10 9 13 8 13 -2 0 -12 2 -12 9 0 6
9 20 12 40 9 17 -2 31 -1 31 3 0 4 9 6 21 4 11 -2 42 -5 70 -6z m-655 -1755
c15 -3 32 -11 40 -19 8 -7 23 -16 34 -20 10 -3 22 -15 25 -26 4 -10 11 -19 16
-19 5 0 9 -9 9 -20 0 -11 4 -20 8 -20 7 0 14 -36 14 -65 -1 -36 -14 -80 -27
-95 -8 -9 -12 -20 -8 -23 3 -4 1 -7 -6 -7 -7 0 -9 -5 -5 -12 4 -6 3 -8 -4 -4
-6 3 -20 -7 -32 -24 -12 -17 -26 -27 -32 -24 -7 4 -8 2 -4 -4 4 -7 4 -12 -1
-12 -4 0 -19 -16 -32 -35 -13 -19 -27 -32 -32 -29 -5 3 -9 0 -9 -5 0 -15 -86
-101 -94 -94 -3 4 -6 2 -6 -3 0 -5 -18 -29 -40 -54 -22 -25 -40 -49 -40 -53 0
-5 -4 -6 -8 -3 -4 2 -17 -9 -27 -25 -11 -16 -26 -29 -32 -29 -7 0 -13 -3 -13
-8 0 -4 -20 -29 -45 -55 -25 -26 -42 -47 -38 -47 4 0 -7 -10 -24 -22 -16 -13
-31 -27 -32 -33 0 -5 -5 -10 -11 -10 -5 0 -9 -3 -7 -7 1 -3 -11 -17 -28 -30
-16 -12 -39 -32 -50 -43 -11 -11 -27 -21 -35 -23 -8 -2 -18 -9 -22 -15 -4 -7
-8 -7 -8 -2 0 6 -19 10 -43 11 -51 1 -67 5 -85 22 -8 7 -18 9 -24 6 -7 -4 -8
-2 -4 4 4 7 3 12 -1 12 -10 0 -49 62 -45 73 1 4 -2 7 -7 7 -4 0 -8 15 -8 33 1
18 -2 38 -6 44 -4 6 -3 14 3 18 6 4 8 11 5 16 -4 5 -1 9 4 9 6 0 10 3 9 8 -4
13 13 52 23 52 5 0 9 6 9 13 0 7 15 26 34 40 18 15 44 43 57 62 13 19 30 35
37 35 6 0 12 3 12 8 0 4 34 42 75 85 41 42 73 77 70 77 -3 0 0 6 7 14 7 8 15
12 17 10 2 -2 14 10 26 26 12 16 25 27 28 23 4 -3 7 -2 7 4 0 14 47 63 54 56
3 -3 10 6 15 21 6 14 15 26 21 26 6 0 15 11 22 25 6 13 14 23 17 22 3 -2 20
12 38 30 17 18 29 33 26 33 -3 0 8 14 25 30 18 17 37 30 42 30 6 0 8 5 5 10
-3 6 -1 10 4 10 13 0 17 1 61 16 19 7 38 10 43 7 4 -2 19 -7 33 -9z m1567
-331 c45 -27 69 -74 71 -138 0 -30 -3 -56 -7 -58 -4 -1 -9 -12 -10 -25 0 -12
-5 -22 -10 -22 -4 0 -5 -4 -2 -10 3 -5 1 -10 -4 -10 -6 0 -11 -7 -11 -15 0 -8
-4 -15 -10 -15 -5 0 -10 -7 -10 -16 0 -8 -4 -13 -9 -9 -5 3 -12 -4 -16 -15 -4
-11 -10 -18 -15 -15 -4 3 -11 -2 -14 -10 -3 -8 -9 -14 -13 -13 -4 1 -18 -3
-30 -10 -13 -7 -23 -10 -23 -7 0 4 -6 3 -12 -2 -20 -12 -57 -3 -95 23 -20 13
-32 24 -27 24 4 0 3 5 -4 12 -7 7 -12 20 -12 30 0 10 -6 18 -12 18 -8 0 -9 3
-3 8 13 10 18 39 7 46 -10 6 18 97 37 120 8 9 10 16 6 16 -3 0 12 18 35 40 23
22 46 40 51 40 5 0 9 5 9 11 0 5 5 7 10 4 6 -3 10 -2 10 4 0 5 9 8 20 6 11 -2
20 0 20 5 0 13 36 4 73 -17z"/>
<path d="M2554 4414 c3 -7 2 -13 -2 -13 -24 4 -43 -4 -71 -30 -16 -15 -27 -31
-24 -35 3 -3 1 -6 -6 -6 -8 0 -11 -8 -8 -20 3 -11 1 -22 -4 -25 -11 -7 -7 -65
5 -65 5 0 6 -3 3 -7 -4 -3 -2 -12 4 -20 6 -7 9 -13 6 -13 -4 0 4 -10 16 -23
12 -13 25 -22 30 -20 4 2 7 -1 7 -7 0 -6 5 -8 10 -5 6 3 10 1 10 -6 0 -7 3
-10 6 -6 3 3 17 1 31 -4 18 -7 30 -6 41 3 13 11 14 11 7 -1 -6 -11 -3 -13 11
-9 10 3 26 7 34 9 8 2 18 9 22 14 5 6 8 5 8 -3 0 -10 3 -10 14 0 8 7 11 17 8
22 -3 5 0 6 6 2 12 -7 63 39 54 49 -4 3 -1 9 5 13 20 12 19 87 -1 117 -12 18
-13 25 -5 20 8 -4 1 5 -15 21 -29 28 -128 68 -134 54 -2 -4 -19 -4 -38 0 -28
7 -34 5 -30 -6z"/>
<path d="M1954 4039 c-3 -6 -11 -8 -17 -6 -15 5 -90 -70 -82 -83 3 -5 2 -10
-4 -10 -6 0 -8 -6 -5 -14 3 -8 0 -17 -6 -21 -8 -5 -7 -11 2 -23 11 -13 11 -14
-2 -7 -12 7 -13 6 -3 -6 6 -8 13 -23 15 -34 3 -22 41 -65 58 -65 5 0 10 -4 10
-9 0 -9 57 -27 73 -23 4 1 16 -2 27 -8 12 -6 20 -6 22 0 2 5 15 11 31 12 15 1
27 6 27 11 0 4 4 6 8 3 13 -8 85 61 77 74 -3 5 -1 10 5 10 6 0 8 5 5 10 -3 6
-1 10 5 10 6 0 8 5 4 11 -4 7 -8 30 -8 51 -1 22 -8 43 -16 48 -8 6 -11 10 -6
10 13 0 -33 38 -55 45 -11 4 -19 10 -19 14 0 11 -139 11 -146 0z"/>
<path d="M3107 4031 c-21 -9 -35 -20 -31 -24 7 -6 -10 -11 -28 -8 -5 0 -7 -2
-6 -6 3 -15 -14 -63 -22 -63 -5 0 -8 -9 -7 -20 1 -11 6 -20 11 -20 6 0 6 -4
-1 -11 -12 -12 4 -69 19 -69 4 0 8 -5 8 -11 0 -16 42 -48 63 -49 9 0 17 -4 17
-8 0 -5 27 -10 60 -11 42 -1 60 2 60 10 0 7 3 9 7 6 3 -4 17 0 30 8 13 9 29
13 35 9 7 -4 8 -3 4 4 -4 7 -3 12 1 12 12 0 44 56 36 64 -3 3 -1 6 5 6 8 0 10
18 6 57 -5 51 -10 61 -47 95 -23 21 -48 36 -54 33 -7 -2 -13 -1 -13 4 0 15
-113 9 -153 -8z"/>
<path d="M2637 3654 c-4 -4 -23 -7 -44 -6 -20 1 -43 -4 -51 -11 -8 -6 -17 -11
-19 -9 -7 5 -26 1 -20 -5 4 -3 -3 -11 -14 -17 -12 -6 -22 -15 -23 -21 0 -5 -7
-18 -15 -27 -19 -22 -27 -93 -9 -82 10 5 10 4 1 -6 -10 -10 -9 -20 5 -43 17
-31 52 -72 52 -61 0 3 7 -2 16 -11 9 -9 24 -13 32 -10 8 3 18 1 22 -5 11 -17
68 -13 121 8 29 11 87 62 73 62 -5 0 -1 5 9 11 9 6 15 14 12 19 -3 5 -1 11 5
15 5 3 10 11 10 16 0 6 -4 8 -8 5 -4 -2 -6 10 -4 28 2 21 -2 39 -13 49 -9 10
-11 17 -5 17 6 0 8 5 5 11 -4 6 -9 8 -12 6 -2 -3 -17 7 -31 21 -24 24 -35 30
-67 35 -5 1 -13 5 -16 10 -3 4 -8 4 -12 1z"/>
</g>
</svg>
